<?xml version="1.0" encoding="UTF-8" standalone="no"?><!-- Generator: Gravit.io --><svg xmlns="http://www.w3.org/2000/svg" xmlns:xlink="http://www.w3.org/1999/xlink" style="isolation:isolate" viewBox="0 0 17.152 18.455" width="17.152pt" height="18.455pt"><defs><clipPath id="_clipPath_FSxzeOlGSaxXt5JR7pdumgkLhMaPSn1D"><rect width="17.152" height="18.455"/></clipPath></defs><g clip-path="url(#_clipPath_FSxzeOlGSaxXt5JR7pdumgkLhMaPSn1D)"><path d=" M 7.151 16.358 C 7.151 16.109 7.04 15.873 6.849 15.713 C 6.657 15.554 6.405 15.488 6.16 15.533 C 5.06 15.733 3.676 15.765 3.308 14.733 C 2.986 13.929 2.452 13.227 1.763 12.703 C 1.714 12.676 1.667 12.646 1.623 12.611 C 1.5 12.287 1.19 12.072 0.843 12.07 L 0.843 12.07 C 0.381 12.069 0.006 12.443 0.004 12.905 C 0.004 13.589 0.684 14.027 0.961 14.175 C 1.288 14.503 1.551 14.89 1.736 15.315 C 2.041 16.173 2.929 17.475 5.481 17.308 C 5.481 17.337 5.481 17.365 5.481 17.391 L 5.481 17.615 C 5.47 17.921 5.628 18.209 5.892 18.366 C 6.155 18.522 6.484 18.522 6.747 18.366 C 7.011 18.209 7.169 17.921 7.158 17.615 L 7.158 17.348 C 7.151 17.19 7.151 16.96 7.151 16.358 Z  M 16.092 3.673 C 16.119 3.573 16.145 3.452 16.168 3.321 C 16.304 2.386 16.186 1.432 15.826 0.559 C 15.734 0.329 15.545 0.151 15.31 0.073 C 15.01 -0.027 13.91 -0.227 11.801 1.121 C 10.049 0.709 8.224 0.709 6.472 1.121 C 4.372 -0.206 3.275 -0.026 2.98 0.069 C 2.739 0.144 2.544 0.324 2.451 0.559 C 2.084 1.449 1.967 2.422 2.112 3.373 C 2.132 3.48 2.155 3.579 2.178 3.673 C 1.484 4.598 1.114 5.726 1.125 6.882 C 1.123 7.14 1.135 7.398 1.161 7.655 C 1.151 10.329 3.074 12.619 5.71 13.072 C 5.674 13.172 5.64 13.289 5.61 13.408 C 5.529 13.702 5.615 14.017 5.833 14.23 C 6.051 14.443 6.368 14.521 6.66 14.433 C 6.953 14.346 7.174 14.106 7.239 13.808 C 7.292 13.529 7.429 13.272 7.631 13.072 C 7.881 12.853 7.979 12.508 7.88 12.191 C 7.78 11.873 7.503 11.645 7.173 11.608 C 4.277 11.278 3.019 10.103 2.83 7.503 C 2.809 7.297 2.8 7.091 2.802 6.884 C 2.787 6.057 3.06 5.251 3.573 4.603 C 3.624 4.536 3.679 4.471 3.737 4.409 C 3.946 4.175 4.007 3.843 3.895 3.55 C 3.838 3.399 3.795 3.243 3.765 3.084 C 3.697 2.634 3.72 2.175 3.831 1.733 C 4.558 1.939 5.242 2.274 5.851 2.722 C 6.055 2.858 6.309 2.898 6.545 2.833 C 8.24 2.373 10.027 2.373 11.722 2.833 C 11.961 2.899 12.217 2.857 12.422 2.718 C 13.029 2.267 13.712 1.929 14.439 1.718 C 14.55 2.15 14.575 2.599 14.512 3.041 C 14.481 3.215 14.434 3.385 14.37 3.55 C 14.258 3.843 14.319 4.175 14.528 4.409 C 14.593 4.482 14.657 4.561 14.716 4.634 C 15.224 5.27 15.492 6.064 15.472 6.878 C 15.473 7.096 15.463 7.313 15.44 7.53 C 15.255 10.093 13.993 11.274 11.083 11.605 C 10.754 11.643 10.477 11.872 10.379 12.188 C 10.28 12.505 10.377 12.85 10.626 13.069 C 10.835 13.275 10.972 13.542 11.017 13.831 C 11.074 14.055 11.099 14.287 11.094 14.518 L 11.094 16.475 C 11.086 17.018 11.086 17.425 11.086 17.612 C 11.075 17.918 11.233 18.206 11.497 18.363 C 11.76 18.519 12.089 18.519 12.352 18.363 C 12.616 18.206 12.774 17.918 12.763 17.612 C 12.763 17.43 12.763 17.031 12.771 16.488 L 12.771 14.518 C 12.778 14.147 12.734 13.777 12.641 13.418 C 12.614 13.3 12.58 13.184 12.541 13.069 C 15.176 12.631 17.107 10.353 17.108 7.682 C 17.136 7.416 17.149 7.149 17.147 6.882 C 17.167 5.724 16.795 4.593 16.092 3.673 L 16.092 3.673 Z " fill="rgb(212,52,31)"/></g></svg>