<?xml version="1.0" encoding="UTF-8" standalone="no"?><!-- Generator: Gravit.io --><svg xmlns="http://www.w3.org/2000/svg" xmlns:xlink="http://www.w3.org/1999/xlink" style="isolation:isolate" viewBox="0 0 15.4 14.754" width="15.4pt" height="14.754pt"><defs><clipPath id="_clipPath_ovdGAPM9vnXpApMkoTR39660pLI13qDZ"><rect width="15.4" height="14.754"/></clipPath></defs><g clip-path="url(#_clipPath_ovdGAPM9vnXpApMkoTR39660pLI13qDZ)"><path d=" M 3.195 1.6 C 3.19 2.477 2.476 3.185 1.599 3.182 C 0.722 3.179 0.013 2.468 0.013 1.591 C 0.013 0.714 0.723 0.002 1.6 0 C 2.482 0.003 3.195 0.718 3.195 1.6 Z  M 3.207 4.49 L 0 4.49 L 0 14.754 L 3.207 14.754 L 3.207 4.49 Z  M 8.327 4.49 L 5.141 4.49 L 5.141 14.754 L 8.328 14.754 L 8.328 9.366 C 8.328 6.366 12.195 6.125 12.195 9.366 L 12.195 14.754 L 15.395 14.754 L 15.395 8.254 C 15.395 3.199 9.672 3.383 8.327 5.872 L 8.327 4.49 Z " fill="rgb(212,52,31)"/></g></svg>