<?xml version="1.0" encoding="UTF-8" standalone="no"?><!-- Generator: Gravit.io --><svg xmlns="http://www.w3.org/2000/svg" xmlns:xlink="http://www.w3.org/1999/xlink" style="isolation:isolate" viewBox="0 0 19.012 19.012" width="19.012pt" height="19.012pt"><defs><clipPath id="_clipPath_aoRKQni1PfT0jrLPOYfM3v4sQNhKHRcr"><rect width="19.012" height="19.012"/></clipPath></defs><g clip-path="url(#_clipPath_aoRKQni1PfT0jrLPOYfM3v4sQNhKHRcr)"><path d=" M 19.012 11.883 L 19.012 19.013 L 0 19.013 L 0 11.883 L 2.377 11.883 L 2.377 16.636 L 16.636 16.636 L 16.636 11.883 L 19.012 11.883 Z  M 3.566 13.072 L 15.449 13.072 L 15.449 15.449 L 3.566 15.449 L 3.566 13.072 Z  M 3.845 10.5 L 4.359 8.18 L 15.959 10.751 L 15.445 13.071 L 3.845 10.5 Z  M 5.191 5.729 L 6.191 3.576 L 16.966 8.6 L 15.966 10.753 L 5.191 5.729 Z  M 18.412 6.711 L 16.966 8.6 L 7.539 1.368 L 8.585 0 L 9.666 0 L 18.412 6.711 Z " fill="rgb(212,52,31)"/></g></svg>